PathFileType	4	(X/Y/Z)	Walk4.trc
DataRate	CameraRate	NumFrames	NumMarkers	Units	OrigDataRate	OrigDataStartFrame	OrigNumFrames
200.000000	200.000000	6	59	mm	200.000000	313	506
Frame#	Times		LBHD		RBHD		C7		T10		RBack		LPSI		RPSI		RElbowM		RCAR		RFA1		LUA1		RTB1		RTH3		RTB4		LACR1		LCAR		RTH2		LWRU		RTB3		LWRR		RMT1		RWRU		RToe		LElbowM		RCAL		CLAV		RUA1		RTH4		RTH1		RWRR		RMT5		LFA1		LLFC		RACR1		RTB2		LTH1		LTH4		LFHD		RElbow		RLFC		RFHD		LElbow		RMMAL		STRN		LTH3		RLMAL		RASI		LTB2		LTH2		LTB3		LCAL		LASI		LMT5		LMT1		LTB1		LToe		LTB4		LLMAL		LMMAL
			X1	Y1	Z1	X2	Y2	Z2	X3	Y3	Z3	X4	Y4	Z4	X5	Y5	Z5	X6	Y6	Z6	X7	Y7	Z7	X8	Y8	Z8	X9	Y9	Z9	X10	Y10	Z10	X11	Y11	Z11	X12	Y12	Z12	X13	Y13	Z13	X14	Y14	Z14	X15	Y15	Z15	X16	Y16	Z16	X17	Y17	Z17	X18	Y18	Z18	X19	Y19	Z19	X20	Y20	Z20	X21	Y21	Z21	X22	Y22	Z22	X23	Y23	Z23	X24	Y24	Z24	X25	Y25	Z25	X26	Y26	Z26	X27	Y27	Z27	X28	Y28	Z28	X29	Y29	Z29	X30	Y30	Z30	X31	Y31	Z31	X32	Y32	Z32	X33	Y33	Z33	X34	Y34	Z34	X35	Y35	Z35	X36	Y36	Z36	X37	Y37	Z37	X38	Y38	Z38	X39	Y39	Z39	X40	Y40	Z40	X41	Y41	Z41	X42	Y42	Z42	X43	Y43	Z43	X44	Y44	Z44	X45	Y45	Z45	X46	Y46	Z46	X47	Y47	Z47	X48	Y48	Z48	X49	Y49	Z49	X50	Y50	Z50	X51	Y51	Z51	X52	Y52	Z52	X53	Y53	Z53	X54	Y54	Z54	X55	Y55	Z55	X56	Y56	Z56	X57	Y57	Z57	X58	Y58	Z58	X59	Y59	Z59

313	1.565	-185.19	1470.2	-105.24	-185.97	1480.7	17.804	-216.39	1336.3	-35.018	-242.68	1066.2	-41.063	-247.16	1233.8	89.745	-269.98	887.44	-67.432	-267.98	880.77	30.689	-260.72	950.42	146.14	-234.01	719.49	295.29	-260.75	862.07	247.86	-115.76	1097.3	-278.51	62.697	337.28	26.87	-34.668	539.36	127.61	74.27	246.23	32.051	-131.24	1272.4	-197.75	28.695	735.07	-321.34	0.97827	658.8	128.29	-30.416	754.17	-310.85	96.729	154.97	30.556	28.034	772.99	-270.1	178.17	57.171	13.972	-262.3	748.18	247.52	236.96	38.001	20.567	-173.8	941.8	-234.36	27.454	36.168	61.665	-93.074	1255.1	-25.473	-175.72	1118.4	200.6	-65.874	627.13	151.83	-92.945	709.01	177	-187.5	746.26	257.94	164.23	40.175	67.326	-88.049	861.61	-313.05	-221.06	438.15	-171.75	-149.4	1270.3	122.55	56.47	243.4	101.05	-128.94	719.19	-223.94	-143.67	628.71	-199.92	-12.67	1466.2	-83.473	-232.06	983.85	231.21	14.901	453.13	110.3	-6.201	1477.1	-7.5283	-143.08	977.22	-297.46	78.343	72.212	0.83548	-29.078	1152.4	-27.74	-165.12	537.91	-178.88	83.651	66.122	79.833	-39.917	851.83	109.94	-329.86	261.83	-149.58	-81.831	628.96	-160.6	-357.82	174.73	-73.995	-506.76	113.13	-74.048	32.921	868.63	-176.72	-392.12	44.135	-113.36	-365.58	54.616	-57.76	-246.56	319.42	-89.208	-325.04	24.754	-60.457	-309.2	251.95	-82.425	-450.7	116.35	-116.31	-434.12	115.55	-37.445
314	1.57	-179.71	1471	-104.27	-180.38	1481.4	18.771	-210.83	1337	-33.88	-236.91	1066.8	-40.104	-241.33	1234.4	91.003	-263.99	887.66	-67.105	-262.06	881.39	31.093	-253.86	950.7	146.72	-226.76	719.48	295.43	-253.63	862.14	248.28	-110.33	1098.1	-277.38	66.423	337.17	26.897	-29.66	540.01	128.07	77.013	245.99	32.071	-125.77	1273.2	-196.73	33.259	735.28	-320.72	6.7531	659.21	128.25	-25.75	754.57	-310.09	98.492	154.47	30.515	32.837	773.16	-269.45	178.9	55.431	13.801	-255.16	748.25	247.81	237.49	35.363	20.193	-168.21	942.66	-232.97	27.855	36.518	61.798	-87.475	1255.9	-24.466	-169.06	1118.6	201.42	-60.123	628.02	152.37	-86.502	710.13	177.55	-180.34	746.32	257.99	164.69	38.796	67.334	-82.989	862.27	-312.07	-213.47	438.43	-172.21	-143.63	1271	123.66	59.635	243.36	101.19	-122.73	719.96	-223.63	-136.92	629.29	-199.9	-7.1688	1467	-82.664	-224.98	983.91	231.83	19.772	453.53	110.68	-0.62539	1477.8	-6.7062	-137.65	977.97	-296.23	79.137	71.948	0.89333	-23.342	1153.4	-26.734	-157.87	538.32	-179.2	84.453	65.771	79.927	-34.076	852.79	110.65	-324.51	263.59	-149.96	-74.962	629.7	-160.83	-353.15	176.58	-74.532	-502.65	118.17	-73.705	35.424	868.71	-176.55	-390.75	45.193	-113.18	-364.05	54.885	-57.622	-239.92	319.7	-90.018	-325.31	24.71	-60.164	-303.49	253.12	-83.006	-447.18	119.82	-116.32	-430.09	118.56	-37.634
315	1.575	-174.22	1471.8	-103.3	-174.79	1482.3	19.732	-205.29	1337.8	-32.761	-231.17	1067.6	-39.16	-235.53	1235.1	92.242	-258.02	887.92	-66.832	-256.16	882.08	31.463	-246.93	951.07	147.3	-219.33	719.57	295.56	-246.38	862.31	248.71	-104.93	1098.9	-276.27	69.989	337.07	26.947	-24.787	540.69	128.56	79.594	245.77	32.121	-120.29	1274.1	-195.71	37.731	735.56	-320.14	12.454	659.64	128.23	-21.176	755.07	-309.37	100.12	154.02	30.494	37.555	773.39	-268.84	179.5	53.9	13.64	-247.86	748.41	248.1	237.91	33.048	19.814	-162.64	943.64	-231.57	28.205	36.838	61.946	-81.899	1256.8	-23.476	-162.32	1119	202.23	-54.463	628.95	152.92	-80.106	711.3	178.13	-173.02	746.48	257.99	165.07	37.618	67.372	-77.984	863.02	-311.11	-205.61	438.74	-172.7	-137.88	1271.8	124.76	62.682	243.35	101.38	-116.44	720.79	-223.32	-130.05	629.93	-199.88	-1.668	1467.8	-81.856	-217.79	984.07	232.44	24.623	454	111.05	4.9484	1478.6	-5.8823	-132.25	978.83	-295.01	79.823	71.747	0.97511	-17.631	1154.4	-25.741	-150.42	538.8	-179.55	85.175	65.472	80.034	-28.286	853.83	111.38	-318.88	265.44	-150.36	-67.976	630.56	-161.05	-348.16	178.49	-75.114	-498.16	123.37	-73.344	37.69	868.79	-176.39	-389.24	46.35	-112.99	-362.42	55.188	-57.457	-232.98	320	-90.909	-325.6	24.673	-59.864	-297.47	254.35	-83.644	-443.36	123.41	-116.32	-425.73	121.66	-37.821
316	1.58	-168.73	1472.7	-102.34	-169.2	1483.2	20.685	-199.78	1338.7	-31.664	-225.48	1068.4	-38.234	-229.75	1235.9	93.46	-252.07	888.21	-66.606	-250.29	882.84	31.804	-239.94	951.54	147.88	-211.73	719.76	295.69	-239	862.58	249.14	-99.539	1099.9	-275.18	73.394	336.99	27.024	-20.025	541.4	129.06	82.018	245.57	32.199	-114.8	1275.1	-194.69	42.114	735.9	-319.59	18.076	660.08	128.23	-16.691	755.65	-308.7	101.62	153.61	30.487	42.192	773.69	-268.26	180	52.573	13.485	-240.4	748.68	248.39	238.24	31.051	19.43	-157.09	944.73	-230.17	28.509	37.125	62.104	-76.349	1257.8	-22.503	-155.53	1119.4	203.01	-48.894	629.91	153.48	-73.782	712.52	178.72	-165.55	746.75	257.95	165.37	36.629	67.434	-73.031	863.87	-310.18	-197.47	439.07	-173.23	-132.15	1272.7	125.82	65.594	243.35	101.6	-110.1	721.68	-223	-123.06	630.64	-199.86	3.83	1468.7	-81.05	-210.49	984.33	233.05	29.438	454.49	111.4	10.517	1479.5	-5.0585	-126.86	979.8	-293.81	80.406	71.601	1.0739	-11.949	1155.5	-24.759	-142.77	539.32	-179.91	85.821	65.219	80.147	-22.546	854.96	112.16	-312.97	267.37	-150.8	-60.88	631.53	-161.26	-342.84	180.46	-75.741	-493.25	128.71	-72.97	39.732	868.88	-176.24	-387.59	47.62	-112.81	-360.67	55.545	-57.273	-225.74	320.31	-91.878	-325.9	24.647	-59.567	-291.14	255.62	-84.338	-439.21	127.12	-116.32	-421.02	124.85	-38.007
317	1.585	-163.26	1473.6	-101.39	-163.62	1484.2	21.629	-194.3	1339.7	-30.589	-219.82	1069.3	-37.326	-223.99	1236.8	94.654	-246.15	888.53	-66.417	-244.44	883.66	32.12	-232.91	952.1	148.47	-203.94	720.04	295.8	-231.5	862.93	249.57	-94.169	1101	-274.12	76.635	336.92	27.134	-15.348	542.12	129.58	84.286	245.39	32.304	-109.32	1276.2	-193.68	46.417	736.3	-319.07	23.617	660.54	128.26	-12.286	756.32	-308.08	102.99	153.24	30.491	46.753	774.05	-267.71	180.39	51.44	13.337	-232.79	749.03	248.68	238.49	29.357	19.043	-151.56	945.93	-228.78	28.771	37.376	62.267	-70.826	1258.9	-21.548	-148.68	1120	203.77	-43.413	630.9	154.04	-67.552	713.76	179.32	-157.91	747.13	257.86	165.6	35.816	67.516	-68.128	864.81	-309.26	-189.06	439.41	-173.79	-126.44	1273.7	126.86	68.355	243.36	101.85	-103.7	722.62	-222.68	-115.95	631.39	-199.84	9.3222	1469.6	-80.248	-203.1	984.69	233.67	34.191	455	111.73	16.076	1480.4	-4.2372	-121.5	980.87	-292.64	80.897	71.501	1.1841	-6.2979	1156.6	-23.789	-134.94	539.89	-180.28	86.394	65.005	80.261	-16.854	856.15	112.96	-306.76	269.36	-151.26	-53.679	632.6	-161.47	-337.19	182.47	-76.411	-487.95	134.18	-72.588	41.563	868.96	-176.11	-385.78	49.013	-112.64	-358.79	55.973	-57.078	-218.19	320.63	-92.918	-326.17	24.64	-59.284	-284.49	256.92	-85.082	-434.73	130.94	-116.31	-415.97	128.11	-38.193
318	1.59	-157.79	1474.6	-100.45	-158.05	1485.2	22.562	-188.85	1340.7	-29.54	-214.21	1070.2	-36.439	-218.26	1237.7	95.82	-240.25	888.88	-66.257	-238.61	884.52	32.417	-225.85	952.75	149.06	-195.97	720.42	295.89	-223.89	863.37	250.01	-88.813	1102.1	-273.08	79.712	336.85	27.281	-10.734	542.87	130.11	86.404	245.24	32.434	-103.84	1277.4	-192.67	50.647	736.76	-318.57	29.071	661.02	128.32	-7.9562	757.07	-307.5	104.25	152.9	30.506	51.242	774.46	-267.18	180.7	50.486	13.196	-225.02	749.48	248.97	238.66	27.943	18.657	-146.05	947.22	-227.39	28.995	37.593	62.43	-65.331	1260	-20.613	-141.8	1120.7	204.5	-38.018	631.89	154.59	-61.434	715.01	179.92	-150.1	747.62	257.74	165.78	35.161	67.615	-63.272	865.83	-308.38	-180.37	439.75	-174.38	-120.75	1274.9	127.87	70.954	243.37	102.11	-97.265	723.61	-222.35	-108.73	632.19	-199.81	14.806	1470.6	-79.449	-195.63	985.14	234.27	38.851	455.5	112.04	21.625	1481.4	-3.4212	-116.16	982.03	-291.5	81.303	71.441	1.3017	-0.68036	1157.9	-22.83	-126.92	540.49	-180.67	86.895	64.828	80.373	-11.209	857.39	113.8	-300.26	271.42	-151.74	-46.38	633.76	-161.68	-331.21	184.52	-77.119	-482.23	139.76	-72.203	43.2	869.04	-175.98	-383.79	50.545	-112.48	-356.75	56.494	-56.883	-210.34	320.95	-94.02	-326.39	24.658	-59.031	-277.52	258.24	-85.873	-429.92	134.85	-116.3	-410.56	131.43	-38.375
